<?xml version="1.0" encoding="UTF-8" standalone="no"?>
<!DOCTYPE svg PUBLIC "-//W3C//DTD SVG 1.1//EN"
 "http://www.w3.org/Graphics/SVG/1.1/DTD/svg11.dtd">
<!-- Generated by graphviz version 15.0.0 (20260523.1842)
 -->
<!-- Title: G Pages: 1 -->
<svg width="628pt" height="587pt"
 viewBox="0.00 0.00 628.00 587.00" xmlns="http://www.w3.org/2000/svg" xmlns:xlink="http://www.w3.org/1999/xlink">
<g id="graph0" class="graph" transform="scale(1 1) rotate(0) translate(4 583)">
<title>G</title><style>.edge>path:hover{stroke-width:8}</style>
<polygon fill="white" stroke="none" points="-4,4 -4,-583 623.58,-583 623.58,4 -4,4"/>
<!-- app -->
<g id="node1" class="node">
<title>app</title><style>.edge>path:hover{stroke-width:8}</style>
<polygon fill="blue" stroke="black" points="231.58,-507 177.58,-507 177.58,-471 231.58,-471 231.58,-507"/>
<text xml:space="preserve" text-anchor="middle" x="204.58" y="-485.12" font-family="Helvetica,sans-Serif" font-size="10.00" fill="white">app</text>
</g>
<!-- models -->
<g id="node3" class="node">
<title>models</title><style>.edge>path:hover{stroke-width:8}</style>
<polygon fill="blue" stroke="black" points="470.58,-435 416.58,-435 416.58,-399 470.58,-399 470.58,-435"/>
<text xml:space="preserve" text-anchor="middle" x="443.58" y="-413.12" font-family="Helvetica,sans-Serif" font-size="10.00" fill="white">models</text>
</g>
<!-- app&#45;&gt;models -->
<g id="edge1" class="edge">
<title>app&#45;&gt;models</title><style>.edge>path:hover{stroke-width:8}</style>
<path fill="none" stroke="black" d="M231.94,-480.61C268.46,-470.67 335.1,-452.23 391.58,-435 396.08,-433.63 400.78,-432.15 405.44,-430.66"/>
<polygon fill="blue" stroke="black" points="406.25,-434.08 414.68,-427.67 404.09,-427.42 406.25,-434.08"/>
</g>
<!-- routes_users -->
<g id="node8" class="node">
<title>routes_users</title><style>.edge>path:hover{stroke-width:8}</style>
<polygon fill="blue" stroke="black" points="252.58,-145 182.58,-145 182.58,-109 252.58,-109 252.58,-145"/>
<text xml:space="preserve" text-anchor="middle" x="217.58" y="-123.12" font-family="Helvetica,sans-Serif" font-size="10.00" fill="white">routes.users</text>
</g>
<!-- app&#45;&gt;routes_users -->
<g id="edge2" class="edge">
<title>app&#45;&gt;routes_users</title><style>.edge>path:hover{stroke-width:8}</style>
<path fill="none" stroke="black" d="M205.62,-459.4C208.05,-392.01 214.12,-223.87 216.55,-156.54"/>
<polygon fill="blue" stroke="black" points="202.13,-459 205.27,-469.12 209.12,-459.26 202.13,-459"/>
<polygon fill="blue" stroke="black" points="220.05,-156.82 216.91,-146.7 213.05,-156.57 220.05,-156.82"/>
</g>
<!-- services_feed_service -->
<g id="node10" class="node">
<title>services_feed_service</title><style>.edge>path:hover{stroke-width:8}</style>
<polygon fill="blue" stroke="black" points="138.33,-326 66.83,-326 66.83,-290 138.33,-290 138.33,-326"/>
<text xml:space="preserve" text-anchor="middle" x="102.58" y="-309.75" font-family="Helvetica,sans-Serif" font-size="10.00" fill="white">services.</text>
<text xml:space="preserve" text-anchor="middle" x="102.58" y="-298.5" font-family="Helvetica,sans-Serif" font-size="10.00" fill="white">feed_service</text>
</g>
<!-- app&#45;&gt;services_feed_service -->
<g id="edge3" class="edge">
<title>app&#45;&gt;services_feed_service</title><style>.edge>path:hover{stroke-width:8}</style>
<path fill="none" stroke="black" d="M184.06,-470.71C173.57,-461.04 161.23,-448.29 152.58,-435 132.46,-404.07 118.23,-363.76 110.22,-337.16"/>
<polygon fill="blue" stroke="black" points="113.65,-336.41 107.5,-327.79 106.93,-338.37 113.65,-336.41"/>
</g>
<!-- services_notification_service -->
<g id="node11" class="node">
<title>services_notification_service</title><style>.edge>path:hover{stroke-width:8}</style>
<polygon fill="blue" stroke="black" points="415.58,-254 315.58,-254 315.58,-218 415.58,-218 415.58,-254"/>
<text xml:space="preserve" text-anchor="middle" x="365.58" y="-237.75" font-family="Helvetica,sans-Serif" font-size="10.00" fill="white">services.</text>
<text xml:space="preserve" text-anchor="middle" x="365.58" y="-226.5" font-family="Helvetica,sans-Serif" font-size="10.00" fill="white">notification_service</text>
</g>
<!-- app&#45;&gt;services_notification_service -->
<g id="edge4" class="edge">
<title>app&#45;&gt;services_notification_service</title><style>.edge>path:hover{stroke-width:8}</style>
<path fill="none" stroke="black" d="M377.58,-362C372.98,-329.16 369.61,-291.21 367.63,-265.83"/>
<polygon fill="blue" stroke="black" points="371.13,-265.67 366.89,-255.96 364.15,-266.19 371.13,-265.67"/>
</g>
<!-- services_playlist_service -->
<g id="node12" class="node">
<title>services_playlist_service</title><style>.edge>path:hover{stroke-width:8}</style>
<polygon fill="blue" stroke="black" points="349.33,-326 265.83,-326 265.83,-290 349.33,-290 349.33,-326"/>
<text xml:space="preserve" text-anchor="middle" x="307.58" y="-309.75" font-family="Helvetica,sans-Serif" font-size="10.00" fill="white">services.</text>
<text xml:space="preserve" text-anchor="middle" x="307.58" y="-298.5" font-family="Helvetica,sans-Serif" font-size="10.00" fill="white">playlist_service</text>
</g>
<!-- app&#45;&gt;services_playlist_service -->
<g id="edge5" class="edge">
<title>app&#45;&gt;services_playlist_service</title><style>.edge>path:hover{stroke-width:8}</style>
<path fill="none" stroke="black" d="M377.58,-362C374.1,-350.13 365.79,-340.46 356.06,-332.79"/>
<polygon fill="blue" stroke="black" points="358.26,-330.05 348.07,-327.17 354.24,-335.78 358.26,-330.05"/>
<path fill="none" stroke="black" d="M232.01,-482.1C285.76,-468.94 398.03,-432.69 377.58,-363"/>
</g>
<!-- services_search_service -->
<g id="node13" class="node">
<title>services_search_service</title><style>.edge>path:hover{stroke-width:8}</style>
<polygon fill="blue" stroke="black" points="591.58,-326 509.58,-326 509.58,-290 591.58,-290 591.58,-326"/>
<text xml:space="preserve" text-anchor="middle" x="550.58" y="-309.75" font-family="Helvetica,sans-Serif" font-size="10.00" fill="white">services.</text>
<text xml:space="preserve" text-anchor="middle" x="550.58" y="-298.5" font-family="Helvetica,sans-Serif" font-size="10.00" fill="white">search_service</text>
</g>
<!-- app&#45;&gt;services_search_service -->
<g id="edge6" class="edge">
<title>app&#45;&gt;services_search_service</title><style>.edge>path:hover{stroke-width:8}</style>
<path fill="none" stroke="black" d="M519.58,-416C530.99,-395.39 507.01,-382.92 519.58,-363"/>
</g>
<!-- services_streak_service -->
<g id="node14" class="node">
<title>services_streak_service</title><style>.edge>path:hover{stroke-width:8}</style>
<polygon fill="blue" stroke="black" points="551.46,-254 471.71,-254 471.71,-218 551.46,-218 551.46,-254"/>
<text xml:space="preserve" text-anchor="middle" x="511.58" y="-237.75" font-family="Helvetica,sans-Serif" font-size="10.00" fill="white">services.</text>
<text xml:space="preserve" text-anchor="middle" x="511.58" y="-226.5" font-family="Helvetica,sans-Serif" font-size="10.00" fill="white">streak_service</text>
</g>
<!-- app&#45;&gt;services_streak_service -->
<g id="edge7" class="edge">
<title>app&#45;&gt;services_streak_service</title><style>.edge>path:hover{stroke-width:8}</style>
<path fill="none" stroke="black" d="M231.96,-486.85C303.34,-483.15 491.55,-468.67 519.58,-418"/>
<path fill="none" stroke="black" d="M519.58,-416C531.38,-394.68 510.34,-386.9 505.58,-363 499.24,-331.1 497.26,-322.35 500.58,-290 501.42,-281.83 502.97,-273.07 504.64,-265.07"/>
<polygon fill="blue" stroke="black" points="508.01,-266.05 506.79,-255.52 501.18,-264.51 508.01,-266.05"/>
</g>
<!-- app_py -->
<g id="node2" class="node">
<title>app_py</title><style>.edge>path:hover{stroke-width:8}</style>
<ellipse fill="#8b4b4b" stroke="black" cx="98.58" cy="-18" rx="27" ry="18"/>
<text xml:space="preserve" text-anchor="middle" x="98.58" y="-14.12" font-family="Helvetica,sans-Serif" font-size="10.00" fill="#ffffff">app.py</text>
</g>
<!-- models&#45;&gt;routes_users -->
<g id="edge8" class="edge">
<title>models&#45;&gt;routes_users</title><style>.edge>path:hover{stroke-width:8}</style>
<path fill="none" stroke="black" d="M443.58,-307C442.3,-251.46 460.67,-234.86 443.58,-182"/>
</g>
<!-- models&#45;&gt;services_feed_service -->
<g id="edge9" class="edge">
<title>models&#45;&gt;services_feed_service</title><style>.edge>path:hover{stroke-width:8}</style>
<path fill="none" stroke="black" d="M448.38,-398.69C450.4,-387.5 450.86,-373.18 443.58,-363"/>
<path fill="none" stroke="black" d="M443.58,-362C435.09,-350.11 241.38,-325.55 149.78,-314.54"/>
<polygon fill="blue" stroke="black" points="150.46,-311.1 140.11,-313.39 149.63,-318.05 150.46,-311.1"/>
</g>
<!-- models&#45;&gt;services_notification_service -->
<g id="edge10" class="edge">
<title>models&#45;&gt;services_notification_service</title><style>.edge>path:hover{stroke-width:8}</style>
<path fill="none" stroke="black" d="M443.58,-307C443.13,-287.38 429.22,-271.87 413.27,-260.49"/>
<polygon fill="blue" stroke="black" points="415.28,-257.62 404.99,-255.09 411.46,-263.49 415.28,-257.62"/>
<path fill="none" stroke="black" d="M443.58,-362C429.89,-342.83 444.13,-332.55 443.58,-309"/>
</g>
<!-- models&#45;&gt;services_playlist_service -->
<g id="edge11" class="edge">
<title>models&#45;&gt;services_playlist_service</title><style>.edge>path:hover{stroke-width:8}</style>
<path fill="none" stroke="black" d="M443.58,-362C424.58,-335.4 390.19,-322.15 360.75,-315.55"/>
<polygon fill="blue" stroke="black" points="361.72,-312.17 351.23,-313.63 360.34,-319.04 361.72,-312.17"/>
</g>
<!-- models&#45;&gt;services_search_service -->
<g id="edge12" class="edge">
<title>models&#45;&gt;services_search_service</title><style>.edge>path:hover{stroke-width:8}</style>
<path fill="none" stroke="black" d="M471.08,-403.78C487.8,-394.89 508.08,-381.23 519.58,-363"/>
<path fill="none" stroke="black" d="M519.58,-362C524.84,-353.67 530.34,-344.45 535.23,-336.06"/>
<polygon fill="blue" stroke="black" points="538.1,-338.08 540.07,-327.67 532.04,-334.59 538.1,-338.08"/>
</g>
<!-- models&#45;&gt;services_streak_service -->
<g id="edge13" class="edge">
<title>models&#45;&gt;services_streak_service</title><style>.edge>path:hover{stroke-width:8}</style>
<path fill="none" stroke="black" d="M443.58,-307C443.15,-288.34 455.68,-272.78 470.09,-261.11"/>
<polygon fill="blue" stroke="black" points="472.05,-264.02 478,-255.25 467.88,-258.39 472.05,-264.02"/>
</g>
<!-- routes -->
<g id="node4" class="node">
<title>routes</title><style>.edge>path:hover{stroke-width:8}</style>
<ellipse fill="#47c2c2" stroke="black" cx="102.58" cy="-561" rx="27" ry="18"/>
<text xml:space="preserve" text-anchor="middle" x="102.58" y="-557.12" font-family="Helvetica,sans-Serif" font-size="10.00" fill="#000000">routes</text>
</g>
<!-- routes&#45;&gt;app -->
<g id="edge14" class="edge">
<title>routes&#45;&gt;app</title><style>.edge>path:hover{stroke-width:8}</style>
<path fill="none" stroke="black" d="M120.82,-547.49C134.42,-538.15 153.42,-525.11 169.89,-513.81"/>
<polygon fill="#47c2c2" stroke="black" points="171.71,-516.8 177.98,-508.26 167.75,-511.03 171.71,-516.8"/>
</g>
<!-- routes&#45;&gt;app_py -->
<g id="edge15" class="edge">
<title>routes&#45;&gt;app_py</title><style>.edge>path:hover{stroke-width:8}</style>
<path fill="none" stroke="black" d="M84.82,-547.34C55.59,-524.9 0.58,-475.06 0.58,-418 0.58,-418 0.58,-418 0.58,-181 0.58,-147.9 -1.75,-134.3 19.58,-109 44.46,-79.5 115.11,-107.87 98.58,-73"/>
<path fill="none" stroke="black" d="M98.58,-72C94.98,-64.54 93.91,-55.77 94.04,-47.54"/>
<polygon fill="#47c2c2" stroke="black" points="97.53,-47.82 94.81,-37.58 90.55,-47.28 97.53,-47.82"/>
</g>
<!-- routes_feed -->
<g id="node5" class="node">
<title>routes_feed</title><style>.edge>path:hover{stroke-width:8}</style>
<polygon fill="blue" stroke="black" points="92.96,-145 28.21,-145 28.21,-109 92.96,-109 92.96,-145"/>
<text xml:space="preserve" text-anchor="middle" x="60.58" y="-123.12" font-family="Helvetica,sans-Serif" font-size="10.00" fill="white">routes.feed</text>
</g>
<!-- routes_feed&#45;&gt;app -->
<g id="edge16" class="edge">
<title>routes_feed&#45;&gt;app</title><style>.edge>path:hover{stroke-width:8}</style>
<path fill="none" stroke="black" d="M54.8,-145.2C48.29,-166.15 38.58,-202.76 38.58,-235 38.58,-363 38.58,-363 38.58,-363 38.58,-426.59 117.29,-461.87 166.31,-477.68"/>
<polygon fill="blue" stroke="black" points="165.14,-480.98 175.73,-480.58 167.2,-474.29 165.14,-480.98"/>
</g>
<!-- routes_feed&#45;&gt;app_py -->
<g id="edge17" class="edge">
<title>routes_feed&#45;&gt;app_py</title><style>.edge>path:hover{stroke-width:8}</style>
<path fill="none" stroke="black" d="M85.01,-108.62C95.73,-98.73 104.64,-85.79 98.58,-73"/>
</g>
<!-- routes_playlists -->
<g id="node6" class="node">
<title>routes_playlists</title><style>.edge>path:hover{stroke-width:8}</style>
<polygon fill="blue" stroke="black" points="164.58,-145 110.58,-145 110.58,-109 164.58,-109 164.58,-145"/>
<text xml:space="preserve" text-anchor="middle" x="137.58" y="-128.75" font-family="Helvetica,sans-Serif" font-size="10.00" fill="white">routes.</text>
<text xml:space="preserve" text-anchor="middle" x="137.58" y="-117.5" font-family="Helvetica,sans-Serif" font-size="10.00" fill="white">playlists</text>
</g>
<!-- routes_playlists&#45;&gt;app -->
<g id="edge18" class="edge">
<title>routes_playlists&#45;&gt;app</title><style>.edge>path:hover{stroke-width:8}</style>
<path fill="none" stroke="black" d="M140.78,-145.19C151.46,-202.55 185.94,-387.82 199.26,-459.4"/>
<polygon fill="blue" stroke="black" points="195.8,-459.96 201.08,-469.15 202.69,-458.68 195.8,-459.96"/>
</g>
<!-- routes_playlists&#45;&gt;app_py -->
<g id="edge19" class="edge">
<title>routes_playlists&#45;&gt;app_py</title><style>.edge>path:hover{stroke-width:8}</style>
<path fill="none" stroke="black" d="M122.4,-108.94C114.29,-99.05 104.75,-86.01 98.58,-73"/>
</g>
<!-- routes_songs -->
<g id="node7" class="node">
<title>routes_songs</title><style>.edge>path:hover{stroke-width:8}</style>
<polygon fill="blue" stroke="black" points="445.71,-145 373.46,-145 373.46,-109 445.71,-109 445.71,-145"/>
<text xml:space="preserve" text-anchor="middle" x="409.58" y="-123.12" font-family="Helvetica,sans-Serif" font-size="10.00" fill="white">routes.songs</text>
</g>
<!-- routes_songs&#45;&gt;app -->
<g id="edge20" class="edge">
<title>routes_songs&#45;&gt;app</title><style>.edge>path:hover{stroke-width:8}</style>
<path fill="none" stroke="black" d="M446.16,-130.36C506.33,-136.43 619.58,-158.07 619.58,-235 619.58,-363 619.58,-363 619.58,-363 619.58,-412.85 578.93,-414.29 533.58,-435 435.94,-479.59 307.01,-487.39 243.44,-488.3"/>
<polygon fill="blue" stroke="black" points="243.47,-484.8 233.5,-488.38 243.53,-491.8 243.47,-484.8"/>
</g>
<!-- routes_songs&#45;&gt;app_py -->
<g id="edge21" class="edge">
<title>routes_songs&#45;&gt;app_py</title><style>.edge>path:hover{stroke-width:8}</style>
<path fill="none" stroke="black" d="M373.2,-121.4C292.37,-110.95 104.47,-85.42 98.58,-73"/>
</g>
<!-- routes_users&#45;&gt;app_py -->
<g id="edge23" class="edge">
<title>routes_users&#45;&gt;app_py</title><style>.edge>path:hover{stroke-width:8}</style>
<path fill="none" stroke="black" d="M182.34,-111.62C147.97,-97.39 100.55,-77.15 98.58,-73"/>
</g>
<!-- services -->
<g id="node9" class="node">
<title>services</title><style>.edge>path:hover{stroke-width:8}</style>
<ellipse fill="#8522e7" stroke="black" cx="266.58" cy="-236" rx="31.21" ry="18"/>
<text xml:space="preserve" text-anchor="middle" x="266.58" y="-232.12" font-family="Helvetica,sans-Serif" font-size="10.00" fill="#ffffff">services</text>
</g>
<!-- services&#45;&gt;routes_feed -->
<g id="edge24" class="edge">
<title>services&#45;&gt;routes_feed</title><style>.edge>path:hover{stroke-width:8}</style>
<path fill="none" stroke="black" d="M244.15,-223.35C210.43,-205.83 146.09,-172.41 103.25,-150.16"/>
<polygon fill="#8522e7" stroke="black" points="104.95,-147.1 94.47,-145.6 101.73,-153.32 104.95,-147.1"/>
</g>
<!-- services&#45;&gt;routes_playlists -->
<g id="edge25" class="edge">
<title>services&#45;&gt;routes_playlists</title><style>.edge>path:hover{stroke-width:8}</style>
<path fill="none" stroke="black" d="M263.81,-217.71C261.08,-206.09 255.76,-191.26 245.58,-182"/>
</g>
<!-- services&#45;&gt;routes_songs -->
<g id="edge26" class="edge">
<title>services&#45;&gt;routes_songs</title><style>.edge>path:hover{stroke-width:8}</style>
<path fill="none" stroke="black" d="M511.58,-181C510.23,-154.67 483.1,-141.4 457.17,-134.72"/>
<polygon fill="#8522e7" stroke="black" points="458.2,-131.37 447.68,-132.58 456.66,-138.2 458.2,-131.37"/>
<path fill="none" stroke="black" d="M290.37,-223.84C295.63,-221.67 301.23,-219.59 306.58,-218 350.93,-204.87 513.96,-228.19 511.58,-182"/>
</g>
<!-- services&#45;&gt;routes_users -->
<g id="edge27" class="edge">
<title>services&#45;&gt;routes_users</title><style>.edge>path:hover{stroke-width:8}</style>
<path fill="none" stroke="black" d="M443.58,-181C438,-163.73 328.32,-144.51 263.84,-134.65"/>
<polygon fill="#8522e7" stroke="black" points="264.66,-131.23 254.25,-133.2 263.61,-138.15 264.66,-131.23"/>
<path fill="none" stroke="black" d="M290.48,-224.18C295.73,-221.99 301.3,-219.81 306.58,-218 366.15,-197.63 462.94,-241.91 443.58,-182"/>
</g>
<!-- services_feed_service&#45;&gt;routes_feed -->
<g id="edge28" class="edge">
<title>services_feed_service&#45;&gt;routes_feed</title><style>.edge>path:hover{stroke-width:8}</style>
<path fill="none" stroke="black" d="M98.48,-289.51C91.22,-258.55 76.03,-193.85 67.25,-156.42"/>
<polygon fill="blue" stroke="black" points="70.68,-155.71 64.99,-146.77 63.87,-157.31 70.68,-155.71"/>
</g>
<!-- services_notification_service&#45;&gt;routes_playlists -->
<g id="edge29" class="edge">
<title>services_notification_service&#45;&gt;routes_playlists</title><style>.edge>path:hover{stroke-width:8}</style>
<path fill="none" stroke="black" d="M315.3,-220.95C292.06,-212.54 265.3,-199.93 245.58,-182"/>
</g>
<!-- services_notification_service&#45;&gt;routes_songs -->
<g id="edge30" class="edge">
<title>services_notification_service&#45;&gt;routes_songs</title><style>.edge>path:hover{stroke-width:8}</style>
<path fill="none" stroke="black" d="M415.92,-226.59C458.56,-217.99 512.66,-202.94 511.58,-182"/>
</g>
<!-- services_notification_service&#45;&gt;routes_users -->
<g id="edge31" class="edge">
<title>services_notification_service&#45;&gt;routes_users</title><style>.edge>path:hover{stroke-width:8}</style>
<path fill="none" stroke="black" d="M415.77,-220.78C434.22,-212.43 449.37,-199.92 443.58,-182"/>
</g>
<!-- services_playlist_service&#45;&gt;routes_playlists -->
<g id="edge32" class="edge">
<title>services_playlist_service&#45;&gt;routes_playlists</title><style>.edge>path:hover{stroke-width:8}</style>
<path fill="none" stroke="black" d="M265.47,-289.87C250.4,-281.45 235.06,-269.67 226.58,-254 218.97,-239.93 222.74,-233.53 226.58,-218 230.93,-200.44 258.97,-194.17 245.58,-182"/>
<path fill="none" stroke="black" d="M245.58,-181C242.55,-178.43 205.02,-160.21 175.03,-145.84"/>
<polygon fill="blue" stroke="black" points="176.71,-142.77 166.18,-141.61 173.69,-149.08 176.71,-142.77"/>
</g>
<!-- services_playlist_service&#45;&gt;services_notification_service -->
<g id="edge33" class="edge">
<title>services_playlist_service&#45;&gt;services_notification_service</title><style>.edge>path:hover{stroke-width:8}</style>
<path fill="none" stroke="black" d="M321.92,-289.7C328.66,-281.56 336.84,-271.69 344.29,-262.7"/>
<polygon fill="blue" stroke="black" points="346.76,-265.2 350.45,-255.27 341.37,-260.74 346.76,-265.2"/>
</g>
<!-- services_search_service&#45;&gt;routes_songs -->
<g id="edge34" class="edge">
<title>services_search_service&#45;&gt;routes_songs</title><style>.edge>path:hover{stroke-width:8}</style>
<path fill="none" stroke="black" d="M557.99,-289.59C564.76,-270.88 572.1,-240.75 560.58,-218 548.38,-193.89 512.97,-208.99 511.58,-182"/>
</g>
<!-- services_streak_service&#45;&gt;routes_songs -->
<g id="edge35" class="edge">
<title>services_streak_service&#45;&gt;routes_songs</title><style>.edge>path:hover{stroke-width:8}</style>
<path fill="none" stroke="black" d="M512.03,-217.8C512.19,-207.43 512.2,-193.95 511.58,-182"/>
</g>
<!-- services_streak_service&#45;&gt;routes_users -->
<g id="edge36" class="edge">
<title>services_streak_service&#45;&gt;routes_users</title><style>.edge>path:hover{stroke-width:8}</style>
<path fill="none" stroke="black" d="M474.3,-217.52C461.2,-209 448.51,-197.24 443.58,-182"/>
</g>
</g>
</svg>
